<svg width="26" height="27" viewBox="0 0 26 27" fill="none" xmlns="http://www.w3.org/2000/svg">
<g id="Group 157">
<path id="Vector" d="M18.6753 6.7707C18.6753 6.41374 18.8171 6.07141 19.0695 5.81901C19.3219 5.5666 19.6642 5.4248 20.0212 5.4248C20.3781 5.4248 20.7205 5.5666 20.9729 5.81901C21.2253 6.07141 21.3671 6.41374 21.3671 6.7707C21.3671 7.12765 21.2253 7.46998 20.9729 7.72239C20.7205 7.97479 20.3781 8.11659 20.0212 8.11659C19.6642 8.11659 19.3219 7.97479 19.0695 7.72239C18.8171 7.46998 18.6753 7.12765 18.6753 6.7707Z" fill="#48423A"/>
<path id="Vector_2" fill-rule="evenodd" clip-rule="evenodd" d="M13.2919 7.10742C11.5964 7.10742 9.97031 7.78097 8.77139 8.97988C7.57247 10.1788 6.89893 11.8049 6.89893 13.5004C6.89893 15.1959 7.57247 16.822 8.77139 18.0209C9.97031 19.2199 11.5964 19.8934 13.2919 19.8934C14.9874 19.8934 16.6135 19.2199 17.8124 18.0209C19.0114 16.822 19.6849 15.1959 19.6849 13.5004C19.6849 11.8049 19.0114 10.1788 17.8124 8.97988C16.6135 7.78097 14.9874 7.10742 13.2919 7.10742ZM8.91776 13.5004C8.91776 12.3403 9.37861 11.2277 10.1989 10.4074C11.0192 9.58711 12.1318 9.12626 13.2919 9.12626C14.452 9.12626 15.5646 9.58711 16.3849 10.4074C17.2052 11.2277 17.6661 12.3403 17.6661 13.5004C17.6661 14.6605 17.2052 15.7731 16.3849 16.5934C15.5646 17.4137 14.452 17.8746 13.2919 17.8746C12.1318 17.8746 11.0192 17.4137 10.1989 16.5934C9.37861 15.7731 8.91776 14.6605 8.91776 13.5004Z" fill="#48423A"/>
<path id="Vector_3" fill-rule="evenodd" clip-rule="evenodd" d="M20.3685 1.16254C15.6651 0.641133 10.9185 0.641133 6.21513 1.16254C3.50719 1.46536 1.32012 3.5986 1.00249 6.32C0.444483 11.0906 0.444483 15.91 1.00249 20.6807C1.32012 23.4021 3.50585 25.5353 6.21513 25.8381C10.9186 26.359 15.6651 26.359 20.3685 25.8381C23.0765 25.5353 25.2635 23.4021 25.5812 20.6807C26.1393 15.91 26.1393 11.0906 25.5812 6.32C25.2635 3.5986 23.0778 1.46536 20.3685 1.16254ZM6.43855 3.16792C10.9935 2.66304 15.5902 2.66304 20.1451 3.16792C21.9351 3.3698 23.3685 4.78164 23.5771 6.55553C24.1168 11.1697 24.1168 15.831 23.5771 20.4451C23.4692 21.3133 23.0718 22.1197 22.4491 22.7342C21.8263 23.3486 21.0146 23.7352 20.1451 23.8314C15.5902 24.3363 10.9935 24.3363 6.43855 23.8314C5.56902 23.7352 4.75733 23.3486 4.13459 22.7342C3.51185 22.1197 3.11443 21.3133 3.00652 20.4451C2.46688 15.831 2.46688 11.1697 3.00652 6.55553C3.11443 5.68737 3.51185 4.88094 4.13459 4.2665C4.75733 3.65207 5.56902 3.26416 6.43855 3.16792Z" fill="#48423A"/>
</g>
</svg>
